# xmcd
#
# Track frame offsets:
#	150
#	12600
#	27375
#	44625
#	58725
#	71775
#	89025
#	104700
#	122325
#	139500
#	153225
#	171075
#	189225
#	208500
#
# Disc length: 2948 seconds
#
# Revision: 1
# Processed by: cddbd v1.5.2PL0 Copyright (c) Steve Scherf et al.
# Submitted via: audiograbber 1.83.01
#
DISCID=ca0b820e
DTITLE=Jasper Stone - Let' er Smoke
DYEAR=2001
DGENRE=Country Rock
TTITLE0=Jack Co. Fair
TTITLE1=Star Fred's
TTITLE2=Everything's Got Me Runnin' To You
TTITLE3=Get Outta Town
TTITLE4=Sweet Lil' Victim
TTITLE5=February Lights
TTITLE6=Kickin' The Blues
TTITLE7=Me and Billy
TTITLE8=Pick Up The Pen
TTITLE9=Grey Dog Blues
TTITLE10=Change Jar
TTITLE11=Apartment Party
TTITLE12=I Keep My Baby Rockin'
TTITLE13=Good-bye
EXTD=
EXTT0=
EXTT1=
EXTT2=
EXTT3=
EXTT4=
EXTT5=
EXTT6=
EXTT7=
EXTT8=
EXTT9=
EXTT10=
EXTT11=
EXTT12=
EXTT13=
PLAYORDER=
